PathFileType	4	(X/Y/Z)	ROM_Ellenbogenflex_R 1.trc
DataRate	CameraRate	NumFrames	NumMarkers	Units	OrigDataRate	OrigDataStartFrame	OrigNumFrames
150	150	11	17	mm	150	1792	2047
Frame#	Time	ST1			ST2			ST3			RACR1			RACR2			RACR3			RUA1			RUA2			RUA3			RUA4			RLA1			RLA2			RLA3			RLA4			RH1			RH2			RH3		
		X1	Y1	Z1	X2	Y2	Z2	X3	Y3	Z3	X4	Y4	Z4	X5	Y5	Z5	X6	Y6	Z6	X7	Y7	Z7	X8	Y8	Z8	X9	Y9	Z9	X10	Y10	Z10	X11	Y11	Z11	X12	Y12	Z12	X13	Y13	Z13	X14	Y14	Z14	X15	Y15	Z15	X16	Y16	Z16	X17	Y17	Z17
	
1792	11.940000	318.765411	1166.568848	-13.614181	337.605011	1112.781738	19.912487	318.924194	1165.754395	42.199051	251.417938	1269.046387	241.509827	211.014786	1169.571899	269.613556	177.600052	1220.098389	173.682617	284.871490	1099.971558	251.657974	293.026489	1050.466919	271.135925	247.507401	1013.287842	257.681366	234.234268	1074.205444	245.664124	354.270538	1056.291626	264.246613	282.773193	1122.635742	275.347870	377.679108	1130.905640	363.393555	407.919312	1060.614746	301.563751	361.131805	1136.906372	244.556839	353.045624	1180.274292	269.082306	398.793854	1155.452759	279.922546
1793	11.946667	318.725769	1166.557861	-13.674759	337.514343	1112.766968	19.878456	318.879456	1165.762939	42.142368	251.418808	1268.948853	241.611115	210.920288	1169.479004	269.521301	177.663513	1220.152222	173.607941	284.391571	1099.533447	251.458710	292.406921	1049.684204	270.942749	246.376740	1013.037781	257.448242	233.580399	1074.046021	245.529510	355.864502	1055.045166	264.421814	285.707092	1122.994873	274.375763	379.767883	1129.012451	363.778595	409.297974	1058.138672	302.117676	364.865356	1135.765625	244.758698	357.479980	1179.222778	269.351501	402.470764	1153.258423	280.650452
1794	11.953333	318.684113	1166.541992	-13.737372	337.463867	1112.765747	19.843908	318.830994	1165.772705	42.085777	251.317337	1268.834351	241.747696	210.807388	1169.319458	269.412415	177.689728	1220.154175	173.517120	283.852356	1099.087769	251.286880	291.738892	1048.888184	270.722961	245.189758	1012.809265	257.232422	232.910278	1073.910156	245.403229	357.577332	1053.710083	264.568207	288.894440	1123.316772	273.553162	382.016846	1127.035278	364.197906	410.799103	1055.516968	302.582306	368.766357	1134.453003	244.965820	362.155762	1178.022583	269.631104	406.321014	1150.863037	281.398438
1795	11.960000	318.639709	1166.522217	-13.804911	337.436096	1112.775146	19.806896	318.782410	1165.785156	42.025398	251.123245	1268.712769	241.909805	210.680862	1169.102661	269.297272	177.682648	1220.108643	173.414139	283.288269	1098.635742	251.116882	291.036835	1048.093018	270.485229	243.957962	1012.616699	257.049103	232.217499	1073.806152	245.300354	359.381958	1052.279907	264.722809	292.314606	1123.581543	272.848114	384.416718	1124.952271	364.661346	412.409241	1052.744019	302.966705	372.878174	1132.961426	245.112488	367.077026	1176.664429	269.922638	410.332275	1148.257202	282.185913
1796	11.966667	318.592072	1166.500977	-13.878071	337.417267	1112.791382	19.764374	318.740112	1165.804810	41.955845	250.857269	1268.593384	242.085190	210.543503	1168.841553	269.187286	177.649887	1220.026855	173.303528	282.724274	1098.183228	250.932373	290.314850	1047.309082	270.233948	242.692993	1012.469849	256.914398	231.501816	1073.737427	245.227570	361.255920	1050.746216	264.912537	295.948395	1123.770020	272.243652	386.964325	1122.730469	365.168823	414.099884	1049.812012	303.303406	377.235352	1131.280762	245.137939	372.243561	1175.132324	270.233612	414.493317	1145.428101	283.034149
1797	11.973333	318.541870	1166.480347	-13.954166	337.399261	1112.811035	19.713442	318.712402	1165.838501	41.870476	250.548676	1268.483887	242.260239	210.400406	1168.555054	269.091248	177.600815	1219.924927	173.189224	282.172150	1097.737915	250.730179	289.586548	1046.544067	269.964355	241.405594	1012.372559	256.840759	230.771011	1073.705933	245.184753	363.182343	1049.099365	265.153687	299.779236	1123.864014	271.740662	389.659485	1120.332764	365.714386	415.818726	1046.708984	303.663696	381.843628	1129.398926	245.030121	377.652618	1173.404663	270.576172	418.796204	1142.359619	283.960938
1798	11.980000	318.490234	1166.461304	-14.029902	337.378693	1112.831055	19.652899	318.707397	1165.894409	41.762344	250.230637	1268.390259	242.422623	210.263138	1168.271606	269.010376	177.545532	1219.820923	173.073990	281.632385	1097.302490	250.514008	288.863525	1045.804565	269.664886	240.104111	1012.322815	256.832886	230.035263	1073.713257	245.167694	365.149811	1047.328979	265.455170	303.793701	1123.845825	271.352448	392.500275	1117.727051	366.294647	417.503906	1043.418335	304.135468	386.659393	1127.303223	244.867004	383.300262	1171.456543	270.964935	423.234924	1139.035278	284.970551
1799	11.986667	318.437897	1166.443726	-14.104491	337.354492	1112.849121	19.584221	318.729462	1165.978027	41.628147	249.934906	1268.315674	242.562729	210.146683	1168.023804	268.938202	177.494659	1219.731689	172.960297	281.097290	1096.873169	250.288483	288.153015	1045.095337	269.324036	238.792526	1012.315063	256.887970	229.304276	1073.760498	245.167282	367.155304	1045.421997	265.815765	307.982544	1123.696289	271.093079	395.480621	1114.891113	366.912720	419.118073	1039.923462	304.769318	391.605988	1124.982056	244.785858	389.181122	1169.263184	271.414825	427.800446	1135.438843	286.050079
1800	11.993333	318.384857	1166.427979	-14.179862	337.325897	1112.862427	19.512611	318.773407	1166.084595	41.474552	249.687057	1268.260864	242.673203	210.061356	1167.837769	268.866241	177.457855	1219.670166	172.850494	280.556854	1096.442139	250.055847	287.457062	1044.415771	268.935303	237.472046	1012.341675	256.996552	228.586334	1073.846191	245.170349	369.207153	1043.360718	266.219238	312.342438	1123.392822	270.964813	398.590820	1111.810913	367.577576	420.665833	1036.212036	305.550018	396.620453	1122.423828	244.896286	395.288666	1166.800537	271.939240	432.477783	1131.555542	287.181519
1801	12.000000	318.330902	1166.415771	-14.259137	337.290131	1112.867798	19.448755	318.817871	1166.193726	41.322979	249.503250	1268.224731	242.748077	210.009872	1167.727905	268.787811	177.441605	1219.643555	172.745865	280.005951	1096.002319	249.813690	286.769775	1043.757935	268.499176	236.143784	1012.393250	257.143158	227.882599	1073.964722	245.171036	371.319244	1041.124512	266.641998	316.878052	1122.909790	270.951691	401.817993	1108.475098	368.302063	422.180695	1032.277222	306.413818	401.673523	1119.620972	245.245499	401.614990	1164.046021	272.549408	437.247253	1127.371460	288.359161
1802	12.006667	318.275421	1166.407959	-14.344693	337.240051	1112.861206	19.410606	318.826050	1166.272095	41.206638	249.388885	1268.204346	242.783524	209.989655	1167.697632	268.698517	177.447891	1219.653442	172.645706	279.446503	1095.548706	249.555725	286.074615	1043.108398	268.024445	234.809143	1012.459595	257.309662	227.180740	1074.104126	245.184814	373.499512	1038.696777	267.070892	321.600342	1122.225586	271.030853	405.147156	1104.872437	369.099335	423.701202	1028.118774	307.283783	406.751282	1116.573242	245.854691	408.150330	1160.977783	273.255432	442.086517	1122.874634	289.594971
